G04 Layer_Color=8388736*
%FSLAX25Y25*%
%MOIN*%
G70*
G01*
G75*
%ADD108C,0.02400*%
%ADD109R,0.03084X0.03241*%
%ADD110R,0.03241X0.03241*%
%ADD111R,0.04343X0.04737*%
%ADD112R,0.02572X0.02375*%
%ADD113R,0.04540X0.04540*%
%ADD114R,0.02375X0.02572*%
%ADD115R,0.04737X0.04737*%
%ADD116R,0.04147X0.03359*%
%ADD117R,0.03241X0.03241*%
%ADD118R,0.06312X0.04934*%
%ADD119R,0.04737X0.04540*%
%ADD120R,0.04540X0.04737*%
%ADD121R,0.03162X0.04737*%
%ADD122R,0.04737X0.04737*%
%ADD123R,0.06902X0.09461*%
%ADD124R,0.09461X0.06902*%
%ADD125R,0.05328X0.06509*%
%ADD126R,0.06902X0.03162*%
%ADD127R,0.06115X0.02375*%
%ADD128R,0.06902X0.08280*%
%ADD129R,0.06312X0.07099*%
%ADD130R,0.04343X0.02375*%
%ADD131R,0.03950X0.03950*%
%ADD132R,0.03241X0.03084*%
%ADD133O,0.03200X0.08800*%
%ADD134O,0.08800X0.03200*%
%ADD135R,0.13792X0.10446*%
%ADD136R,0.03359X0.04934*%
%ADD137C,0.05524*%
%ADD138C,0.01587*%
%ADD139R,0.07887X0.05328*%
%ADD140R,0.07887X0.20879*%
G04:AMPARAMS|DCode=141|XSize=208.79mil|YSize=208.79mil|CornerRadius=54.2mil|HoleSize=0mil|Usage=FLASHONLY|Rotation=0.000|XOffset=0mil|YOffset=0mil|HoleType=Round|Shape=RoundedRectangle|*
%AMROUNDEDRECTD141*
21,1,0.20879,0.10039,0,0,0.0*
21,1,0.10039,0.20879,0,0,0.0*
1,1,0.10839,0.05020,-0.05020*
1,1,0.10839,-0.05020,-0.05020*
1,1,0.10839,-0.05020,0.05020*
1,1,0.10839,0.05020,0.05020*
%
%ADD141ROUNDEDRECTD141*%
%ADD142R,0.04934X0.06312*%
%ADD143R,0.06902X0.09855*%
%ADD144R,0.05918X0.14383*%
%ADD145R,0.05524X0.03162*%
%ADD146R,0.03359X0.04737*%
%ADD147R,0.03556X0.06706*%
%ADD148R,0.06312X0.08280*%
%ADD149R,0.05918X0.05524*%
%ADD150R,0.08871X0.11430*%
%ADD151R,0.03792X0.10249*%
%ADD152R,0.09068X0.07099*%
%ADD153R,0.06312X0.05328*%
%ADD154R,0.10249X0.07493*%
%ADD155R,0.04737X0.04343*%
%ADD156R,0.05249X0.10406*%
%ADD157O,0.04147X0.01981*%
%ADD158O,0.01981X0.04147*%
%ADD159R,0.09658X0.09658*%
%ADD160O,0.04147X0.01587*%
%ADD161O,0.01587X0.04147*%
%ADD162R,0.13123X0.13123*%
%ADD163R,0.08280X0.05131*%
%ADD164O,0.07887X0.01981*%
%ADD165O,0.01981X0.07887*%
%ADD166R,0.02375X0.04343*%
%ADD167R,0.07099X0.13202*%
%ADD168R,0.08083X0.02572*%
%ADD169C,0.09461*%
%ADD170C,0.05800*%
%ADD171O,0.07099X0.04343*%
%ADD172C,0.12598*%
%ADD173C,0.09855*%
%ADD174C,0.07493*%
%ADD175C,0.07099*%
%ADD176C,0.16154*%
%ADD177C,0.03162*%
D108*
X1210740Y120700D02*
G03*
X1210740Y120700I-1100J0D01*
G01*
X1345340Y232100D02*
G03*
X1345340Y232100I-1100J0D01*
G01*
D109*
X873600Y440600D02*
D03*
X869899D02*
D03*
X882172Y278300D02*
D03*
X878471D02*
D03*
X882050Y242800D02*
D03*
X878350D02*
D03*
X995250Y472800D02*
D03*
X991550D02*
D03*
X995150Y468100D02*
D03*
X991450D02*
D03*
X969750Y175900D02*
D03*
X973450D02*
D03*
X969750Y171900D02*
D03*
X973450D02*
D03*
X960350Y185700D02*
D03*
X964050D02*
D03*
X947450Y182200D02*
D03*
X951150D02*
D03*
X1169750Y416400D02*
D03*
X1166050D02*
D03*
X1154450D02*
D03*
X1158150D02*
D03*
X1146850D02*
D03*
X1143150D02*
D03*
X1139200D02*
D03*
X1135499D02*
D03*
X1127850D02*
D03*
X1131550D02*
D03*
X1089517Y125721D02*
D03*
X1093217D02*
D03*
X1054850Y172100D02*
D03*
X1051150D02*
D03*
X1044850D02*
D03*
X1041150D02*
D03*
X1034850D02*
D03*
X1031150D02*
D03*
X1025050D02*
D03*
X1021350D02*
D03*
X915050Y359900D02*
D03*
X918750D02*
D03*
X1042250Y380400D02*
D03*
X1038550D02*
D03*
X1030650Y384500D02*
D03*
X1034350D02*
D03*
X1376950Y389900D02*
D03*
X1380650D02*
D03*
X1376950Y394000D02*
D03*
X1380650D02*
D03*
X1374050Y473600D02*
D03*
X1377750D02*
D03*
X1374050Y485600D02*
D03*
X1377750D02*
D03*
X1374050Y479600D02*
D03*
X1377750D02*
D03*
X918750Y355700D02*
D03*
X915050D02*
D03*
X862750Y364500D02*
D03*
X866450D02*
D03*
Y368700D02*
D03*
X862750D02*
D03*
X1207050Y287100D02*
D03*
X1210750D02*
D03*
X1207050Y291200D02*
D03*
X1210750D02*
D03*
X1207050Y295300D02*
D03*
X1210750D02*
D03*
X1197750Y272000D02*
D03*
X1201450D02*
D03*
X1196450Y296400D02*
D03*
X1200150D02*
D03*
X1197750Y276100D02*
D03*
X1201450D02*
D03*
X1196450Y300500D02*
D03*
X1200150D02*
D03*
X1197750Y280200D02*
D03*
X1201450D02*
D03*
X1195350Y305500D02*
D03*
X1199050D02*
D03*
X879950Y357400D02*
D03*
X883650D02*
D03*
X944150Y186900D02*
D03*
X940450D02*
D03*
X921850Y456600D02*
D03*
X918150D02*
D03*
X869950Y470100D02*
D03*
X873650D02*
D03*
X869950Y475000D02*
D03*
X873650D02*
D03*
X873601Y480900D02*
D03*
X869900D02*
D03*
X873650Y484834D02*
D03*
X869950D02*
D03*
X921450Y411100D02*
D03*
X917750D02*
D03*
X869999Y423100D02*
D03*
X873700D02*
D03*
X870000Y427100D02*
D03*
X873701D02*
D03*
X873700Y436500D02*
D03*
X869999D02*
D03*
X919450Y227900D02*
D03*
X923150D02*
D03*
X920650Y264800D02*
D03*
X924350D02*
D03*
D110*
X1017400Y464857D02*
D03*
Y468400D02*
D03*
X1129000Y363772D02*
D03*
Y360228D02*
D03*
X1148700Y363772D02*
D03*
Y360228D02*
D03*
X1174300Y363772D02*
D03*
Y360228D02*
D03*
X1103500Y241528D02*
D03*
Y245072D02*
D03*
X1129042Y241587D02*
D03*
Y245130D02*
D03*
X1169100Y241628D02*
D03*
Y245172D02*
D03*
X1148700Y242428D02*
D03*
Y245972D02*
D03*
X925700Y158572D02*
D03*
Y155028D02*
D03*
X947600Y154928D02*
D03*
Y158472D02*
D03*
X914500Y188543D02*
D03*
Y185000D02*
D03*
X1175700Y468928D02*
D03*
Y472472D02*
D03*
X1291500Y430572D02*
D03*
Y427028D02*
D03*
X1013400Y239172D02*
D03*
Y235628D02*
D03*
X1034000Y239072D02*
D03*
Y235528D02*
D03*
X866900Y161228D02*
D03*
Y164772D02*
D03*
X884400Y331628D02*
D03*
Y335172D02*
D03*
X1289000Y449200D02*
D03*
Y452743D02*
D03*
X1103600Y363800D02*
D03*
Y360257D02*
D03*
D111*
X928607Y283500D02*
D03*
X922308D02*
D03*
X927499Y247700D02*
D03*
X921200D02*
D03*
X855850Y407100D02*
D03*
X849550D02*
D03*
X870350D02*
D03*
X864050D02*
D03*
X854350Y460200D02*
D03*
X848050D02*
D03*
X869950Y460100D02*
D03*
X863650D02*
D03*
X1283850Y447800D02*
D03*
X1277550D02*
D03*
X1277500Y454300D02*
D03*
X1283799D02*
D03*
X1271250D02*
D03*
X1264950D02*
D03*
X918764Y480104D02*
D03*
X925063D02*
D03*
X918050Y434000D02*
D03*
X924350D02*
D03*
D112*
X882172Y283500D02*
D03*
X879416D02*
D03*
X882056Y247400D02*
D03*
X879300D02*
D03*
X873278Y419400D02*
D03*
X870522D02*
D03*
X873278Y466300D02*
D03*
X870522D02*
D03*
D113*
X864050Y399653D02*
D03*
Y393747D02*
D03*
X855850Y399653D02*
D03*
Y393747D02*
D03*
X863500Y453153D02*
D03*
Y447247D02*
D03*
X854600Y453153D02*
D03*
Y447247D02*
D03*
D114*
X955200Y469678D02*
D03*
Y466922D02*
D03*
X958400Y469678D02*
D03*
Y466922D02*
D03*
X961500Y469678D02*
D03*
Y466922D02*
D03*
X964700Y469678D02*
D03*
Y466922D02*
D03*
X888900Y391100D02*
D03*
Y388344D02*
D03*
X892200Y391078D02*
D03*
Y388322D02*
D03*
X895500Y391078D02*
D03*
Y388322D02*
D03*
X898800Y391078D02*
D03*
Y388322D02*
D03*
D115*
X969500Y465447D02*
D03*
Y471353D02*
D03*
X903600Y386747D02*
D03*
Y392653D02*
D03*
D116*
X1009302Y461904D02*
D03*
Y468400D02*
D03*
X1003200D02*
D03*
Y461904D02*
D03*
D117*
X1198972Y335200D02*
D03*
X1195428D02*
D03*
X1198972Y264300D02*
D03*
X1195428D02*
D03*
X1198972Y287300D02*
D03*
X1195428D02*
D03*
X1073257Y263900D02*
D03*
X1076800D02*
D03*
X1242428Y276200D02*
D03*
X1245972D02*
D03*
X1310029Y260400D02*
D03*
X1306486D02*
D03*
X1310029Y266800D02*
D03*
X1306486D02*
D03*
X1309472Y285600D02*
D03*
X1305928D02*
D03*
X1309329Y301400D02*
D03*
X1305786D02*
D03*
X1308972Y342300D02*
D03*
X1305428D02*
D03*
X1242314Y295100D02*
D03*
X1245857D02*
D03*
X878372Y178700D02*
D03*
X874828D02*
D03*
X944072Y166000D02*
D03*
X940528D02*
D03*
X944072Y170300D02*
D03*
X940528D02*
D03*
X945572Y177400D02*
D03*
X942028D02*
D03*
X922672Y165500D02*
D03*
X919128D02*
D03*
X980072Y188100D02*
D03*
X976528D02*
D03*
X1097424Y125821D02*
D03*
X1100967D02*
D03*
X831559Y382500D02*
D03*
X828016D02*
D03*
X848928Y299700D02*
D03*
X852472D02*
D03*
X849716Y356400D02*
D03*
X853259D02*
D03*
X1061928Y303000D02*
D03*
X1065472D02*
D03*
X878628Y344800D02*
D03*
X882172D02*
D03*
X1061028Y275100D02*
D03*
X1064572D02*
D03*
X830772Y325800D02*
D03*
X827228D02*
D03*
X1050128Y359100D02*
D03*
X1053672D02*
D03*
X1050228Y334500D02*
D03*
X1053772D02*
D03*
X1076557Y276500D02*
D03*
X1080100D02*
D03*
X1076928Y301700D02*
D03*
X1080472D02*
D03*
X1077028Y317500D02*
D03*
X1080572D02*
D03*
X1076228Y335100D02*
D03*
X1079772D02*
D03*
X1198972Y309600D02*
D03*
X1195428D02*
D03*
X922872Y232800D02*
D03*
X919328D02*
D03*
X880557D02*
D03*
X884100D02*
D03*
X924272Y268600D02*
D03*
X920728D02*
D03*
X882157D02*
D03*
X885700D02*
D03*
D118*
X1298100Y425100D02*
D03*
Y432187D02*
D03*
X1293000Y418600D02*
D03*
Y411513D02*
D03*
X1301000Y418600D02*
D03*
Y411513D02*
D03*
X1377600Y165413D02*
D03*
Y172500D02*
D03*
X1369600Y165413D02*
D03*
Y172500D02*
D03*
D119*
X1163900Y244500D02*
D03*
Y238201D02*
D03*
X1303400Y213150D02*
D03*
Y219450D02*
D03*
D120*
X1271350Y447800D02*
D03*
X1265050D02*
D03*
X1235273Y126721D02*
D03*
X1228974D02*
D03*
X1196550Y329900D02*
D03*
X1202850D02*
D03*
D121*
X1218560Y385072D02*
D03*
Y394128D02*
D03*
X1226040Y385072D02*
D03*
X1201810D02*
D03*
Y394128D02*
D03*
X1209291Y385072D02*
D03*
X847747Y362172D02*
D03*
Y371228D02*
D03*
X855227Y362172D02*
D03*
X846960Y305472D02*
D03*
Y314528D02*
D03*
X854440Y305472D02*
D03*
D122*
X1225253Y394128D02*
D03*
X1208503D02*
D03*
X854440Y371228D02*
D03*
X853653Y314528D02*
D03*
D123*
X1336400Y175729D02*
D03*
Y191871D02*
D03*
X1299900Y191800D02*
D03*
Y175658D02*
D03*
X1332900Y452471D02*
D03*
Y436329D02*
D03*
D124*
X1272795Y123221D02*
D03*
X1256653D02*
D03*
X1256553Y159721D02*
D03*
X1272694D02*
D03*
D125*
X826344Y375800D02*
D03*
X833431D02*
D03*
X825557Y319100D02*
D03*
X832643D02*
D03*
X1071513Y270200D02*
D03*
X1078600D02*
D03*
X982543Y194700D02*
D03*
X975457D02*
D03*
D126*
X1123670Y180800D02*
D03*
Y175800D02*
D03*
Y170800D02*
D03*
Y165800D02*
D03*
X1144930Y180800D02*
D03*
Y175800D02*
D03*
Y170800D02*
D03*
Y165800D02*
D03*
X1285030Y426000D02*
D03*
Y431000D02*
D03*
Y436000D02*
D03*
Y441000D02*
D03*
X1263770Y426000D02*
D03*
Y431000D02*
D03*
Y436000D02*
D03*
Y441000D02*
D03*
X913560Y232800D02*
D03*
Y237800D02*
D03*
Y242800D02*
D03*
Y247800D02*
D03*
X892300Y232800D02*
D03*
Y237800D02*
D03*
Y242800D02*
D03*
Y247800D02*
D03*
X914030Y268500D02*
D03*
Y273500D02*
D03*
Y278500D02*
D03*
Y283500D02*
D03*
X892770Y268500D02*
D03*
Y273500D02*
D03*
Y278500D02*
D03*
Y283500D02*
D03*
D127*
X812031Y365376D02*
D03*
Y367935D02*
D03*
Y370495D02*
D03*
Y362817D02*
D03*
Y360258D02*
D03*
Y309092D02*
D03*
Y311651D02*
D03*
Y314210D02*
D03*
Y306533D02*
D03*
Y303974D02*
D03*
D128*
X801500Y370101D02*
D03*
Y360652D02*
D03*
Y313817D02*
D03*
Y304368D02*
D03*
D129*
X811146Y352778D02*
D03*
Y377975D02*
D03*
Y296494D02*
D03*
Y321691D02*
D03*
D130*
X833234Y365225D02*
D03*
Y368375D02*
D03*
X826541D02*
D03*
Y365225D02*
D03*
X1197766Y139059D02*
D03*
Y136500D02*
D03*
Y133941D02*
D03*
X1206034D02*
D03*
Y139059D02*
D03*
X832446Y308525D02*
D03*
Y311675D02*
D03*
X825753D02*
D03*
Y308525D02*
D03*
D131*
X1386401Y485600D02*
D03*
X1392700D02*
D03*
X1386400Y479600D02*
D03*
X1392699D02*
D03*
X1386400Y473600D02*
D03*
X1392699D02*
D03*
D132*
X892300Y186150D02*
D03*
Y189850D02*
D03*
X899800Y171150D02*
D03*
Y167450D02*
D03*
Y174900D02*
D03*
Y178601D02*
D03*
X939400Y196350D02*
D03*
Y192650D02*
D03*
X965400Y168250D02*
D03*
Y171950D02*
D03*
Y179550D02*
D03*
Y175850D02*
D03*
X956100Y189350D02*
D03*
Y185650D02*
D03*
X1162100Y412800D02*
D03*
Y416501D02*
D03*
X1107800Y363850D02*
D03*
Y360150D02*
D03*
X897000Y335350D02*
D03*
Y331650D02*
D03*
X888600D02*
D03*
Y335350D02*
D03*
X892800D02*
D03*
Y331650D02*
D03*
X1256600Y435450D02*
D03*
Y431750D02*
D03*
X1163300Y359650D02*
D03*
Y363350D02*
D03*
X1159100Y359650D02*
D03*
Y363350D02*
D03*
X1137000Y245250D02*
D03*
Y241550D02*
D03*
X1141200Y245250D02*
D03*
Y241550D02*
D03*
X1124900Y245250D02*
D03*
Y241550D02*
D03*
X1145200Y235950D02*
D03*
Y232250D02*
D03*
X1149300Y235950D02*
D03*
Y232250D02*
D03*
X1153700Y233150D02*
D03*
Y229450D02*
D03*
X1157800Y233150D02*
D03*
Y229450D02*
D03*
X1161900Y233150D02*
D03*
Y229450D02*
D03*
X1176700Y245550D02*
D03*
Y241850D02*
D03*
X1124900Y360150D02*
D03*
Y363850D02*
D03*
X1111900Y360150D02*
D03*
Y363850D02*
D03*
X1116000Y360150D02*
D03*
Y363850D02*
D03*
X1380300Y348450D02*
D03*
Y344750D02*
D03*
X1324700Y250899D02*
D03*
Y254600D02*
D03*
X1116700Y180050D02*
D03*
Y176350D02*
D03*
X943500Y192650D02*
D03*
Y196350D02*
D03*
X892300Y182350D02*
D03*
Y178650D02*
D03*
D133*
X1325700Y227100D02*
D03*
X1310700Y205100D02*
D03*
X1325700D02*
D03*
X1310700Y227100D02*
D03*
X1315700D02*
D03*
X1320700D02*
D03*
X1315700Y205100D02*
D03*
X1320700D02*
D03*
X1325700Y195500D02*
D03*
X1310700Y173500D02*
D03*
X1325700D02*
D03*
X1310700Y195500D02*
D03*
X1315700D02*
D03*
X1320700D02*
D03*
X1315700Y173500D02*
D03*
X1320700D02*
D03*
D134*
X1252924Y149021D02*
D03*
X1274924Y134021D02*
D03*
Y149021D02*
D03*
X1252924Y134021D02*
D03*
Y139021D02*
D03*
Y144021D02*
D03*
X1274924Y139021D02*
D03*
Y144021D02*
D03*
X1221100Y149021D02*
D03*
X1243100Y134021D02*
D03*
Y149021D02*
D03*
X1221100Y134021D02*
D03*
Y139021D02*
D03*
Y144021D02*
D03*
X1243100Y139021D02*
D03*
Y144021D02*
D03*
D135*
X1314600Y134151D02*
D03*
Y153049D02*
D03*
X1330800Y134251D02*
D03*
Y153149D02*
D03*
X1347100Y134251D02*
D03*
Y153149D02*
D03*
X1298300Y134151D02*
D03*
Y153049D02*
D03*
D136*
X1085500Y436272D02*
D03*
X1081760Y445328D02*
D03*
X1089240D02*
D03*
X1023700Y242024D02*
D03*
X1027440Y232576D02*
D03*
X1019960D02*
D03*
X1087960Y161555D02*
D03*
X1091700Y152500D02*
D03*
X1084220D02*
D03*
D137*
X1010600Y279500D02*
D03*
X1010700Y272500D02*
D03*
D138*
X1208400Y120700D02*
D03*
X1210860D02*
D03*
X1343000Y232100D02*
D03*
X1345460D02*
D03*
D139*
X1270500Y175189D02*
D03*
Y187000D02*
D03*
X1280000Y175195D02*
D03*
Y187005D02*
D03*
D140*
X1066996Y468000D02*
D03*
X1104004D02*
D03*
D141*
X1085500D02*
D03*
D142*
X975657Y203000D02*
D03*
X982743D02*
D03*
D143*
X1347500Y436035D02*
D03*
Y452965D02*
D03*
D144*
X1359029Y433100D02*
D03*
X1375171D02*
D03*
D145*
X1252826Y260455D02*
D03*
Y263605D02*
D03*
Y266754D02*
D03*
Y269904D02*
D03*
Y273054D02*
D03*
Y276203D02*
D03*
Y279353D02*
D03*
Y282502D02*
D03*
Y285652D02*
D03*
Y288802D02*
D03*
Y291951D02*
D03*
Y295101D02*
D03*
Y298250D02*
D03*
Y301400D02*
D03*
Y304550D02*
D03*
Y307699D02*
D03*
Y310849D02*
D03*
Y313998D02*
D03*
Y317148D02*
D03*
Y320298D02*
D03*
Y323447D02*
D03*
Y326597D02*
D03*
Y329747D02*
D03*
Y332896D02*
D03*
Y336046D02*
D03*
Y339195D02*
D03*
Y342345D02*
D03*
X1298889D02*
D03*
Y339195D02*
D03*
Y336046D02*
D03*
Y332896D02*
D03*
Y329747D02*
D03*
Y326597D02*
D03*
Y323447D02*
D03*
Y320298D02*
D03*
Y317148D02*
D03*
Y313998D02*
D03*
Y310849D02*
D03*
Y307699D02*
D03*
Y304550D02*
D03*
Y301400D02*
D03*
Y298250D02*
D03*
Y295101D02*
D03*
Y291951D02*
D03*
Y288802D02*
D03*
Y285652D02*
D03*
Y282502D02*
D03*
Y279353D02*
D03*
Y276203D02*
D03*
Y273054D02*
D03*
Y269904D02*
D03*
Y266754D02*
D03*
Y263605D02*
D03*
Y260455D02*
D03*
D146*
X1103546Y161231D02*
D03*
X1107286Y152569D02*
D03*
X1099806D02*
D03*
D147*
X1136139Y463900D02*
D03*
X1140469Y462325D02*
D03*
X1144800Y463900D02*
D03*
X1149131Y464687D02*
D03*
X1153461Y463900D02*
D03*
X1157792Y464687D02*
D03*
X1162123Y463900D02*
D03*
X1166453D02*
D03*
D148*
X1117713Y479058D02*
D03*
X1169406Y475120D02*
D03*
D149*
X1163186Y422955D02*
D03*
X1151965D02*
D03*
X1129524D02*
D03*
X1140745D02*
D03*
D150*
X1283652Y408700D02*
D03*
X1265148D02*
D03*
D151*
X1224200Y406400D02*
D03*
X1219200D02*
D03*
X1214200D02*
D03*
X1209200D02*
D03*
X1204200D02*
D03*
X1224200Y421754D02*
D03*
X1219200D02*
D03*
X1214200D02*
D03*
X1209200D02*
D03*
X1204200D02*
D03*
D152*
X1113414Y136900D02*
D03*
X1076800D02*
D03*
D153*
X940861Y159900D02*
D03*
X932200D02*
D03*
Y153601D02*
D03*
X940861D02*
D03*
D154*
X1063600Y281517D02*
D03*
Y296084D02*
D03*
D155*
X909500Y171250D02*
D03*
Y164950D02*
D03*
D156*
X1033000Y128771D02*
D03*
X1023000D02*
D03*
X1043000D02*
D03*
X1053000D02*
D03*
Y162629D02*
D03*
X1043000D02*
D03*
X1033000D02*
D03*
X1023000D02*
D03*
D157*
X919946Y173495D02*
D03*
Y175463D02*
D03*
Y177431D02*
D03*
Y179400D02*
D03*
Y181369D02*
D03*
Y183337D02*
D03*
X935300D02*
D03*
Y181369D02*
D03*
Y179400D02*
D03*
Y177431D02*
D03*
Y175463D02*
D03*
Y173495D02*
D03*
D158*
X922702Y186093D02*
D03*
X924670D02*
D03*
X926639D02*
D03*
X928607D02*
D03*
X930576D02*
D03*
X932544D02*
D03*
Y170739D02*
D03*
X930576D02*
D03*
X928607D02*
D03*
X926639D02*
D03*
X924670D02*
D03*
X922702D02*
D03*
D159*
X927623Y178416D02*
D03*
D160*
X889453Y356606D02*
D03*
Y354637D02*
D03*
Y352668D02*
D03*
Y350700D02*
D03*
Y348731D02*
D03*
Y346763D02*
D03*
Y344795D02*
D03*
X908547D02*
D03*
Y346763D02*
D03*
Y348731D02*
D03*
Y350700D02*
D03*
Y352668D02*
D03*
Y354637D02*
D03*
Y356606D02*
D03*
D161*
X893095Y341153D02*
D03*
X895063D02*
D03*
X897031D02*
D03*
X899000D02*
D03*
X900968D02*
D03*
X902937D02*
D03*
X904906D02*
D03*
Y360247D02*
D03*
X902937D02*
D03*
X900968D02*
D03*
X899000D02*
D03*
X897031D02*
D03*
X895063D02*
D03*
X893095D02*
D03*
D162*
X899000Y350700D02*
D03*
D163*
X1052000Y353493D02*
D03*
Y340107D02*
D03*
D164*
X1088491Y313527D02*
D03*
Y311558D02*
D03*
Y305653D02*
D03*
Y307621D02*
D03*
Y309590D02*
D03*
Y315495D02*
D03*
Y345023D02*
D03*
Y343054D02*
D03*
Y341086D02*
D03*
Y339117D02*
D03*
Y337149D02*
D03*
Y335180D02*
D03*
Y333212D02*
D03*
Y331243D02*
D03*
Y329275D02*
D03*
Y327306D02*
D03*
Y325338D02*
D03*
Y323369D02*
D03*
Y321401D02*
D03*
Y319432D02*
D03*
Y317464D02*
D03*
Y303684D02*
D03*
Y301716D02*
D03*
Y299747D02*
D03*
Y297779D02*
D03*
Y295810D02*
D03*
Y293842D02*
D03*
Y291873D02*
D03*
Y289905D02*
D03*
Y287936D02*
D03*
Y285968D02*
D03*
Y283999D02*
D03*
Y282031D02*
D03*
Y280062D02*
D03*
Y278094D02*
D03*
Y276125D02*
D03*
Y274157D02*
D03*
Y272188D02*
D03*
Y270220D02*
D03*
Y268251D02*
D03*
Y266283D02*
D03*
Y264314D02*
D03*
Y262346D02*
D03*
Y260377D02*
D03*
X1187309D02*
D03*
Y262346D02*
D03*
Y264314D02*
D03*
Y266283D02*
D03*
Y268251D02*
D03*
Y270220D02*
D03*
Y272188D02*
D03*
Y274157D02*
D03*
Y276125D02*
D03*
Y278094D02*
D03*
Y280062D02*
D03*
Y282031D02*
D03*
Y283999D02*
D03*
Y285968D02*
D03*
Y287936D02*
D03*
Y289905D02*
D03*
Y291873D02*
D03*
Y293842D02*
D03*
Y295810D02*
D03*
Y297779D02*
D03*
Y299747D02*
D03*
Y301716D02*
D03*
Y303684D02*
D03*
Y305653D02*
D03*
Y307621D02*
D03*
Y309590D02*
D03*
Y311558D02*
D03*
Y313527D02*
D03*
Y315495D02*
D03*
Y317464D02*
D03*
Y319432D02*
D03*
Y321401D02*
D03*
Y323369D02*
D03*
Y325338D02*
D03*
Y327306D02*
D03*
Y329275D02*
D03*
Y331243D02*
D03*
Y333212D02*
D03*
Y335180D02*
D03*
Y337149D02*
D03*
Y339117D02*
D03*
Y341086D02*
D03*
Y343054D02*
D03*
Y345023D02*
D03*
D165*
X1138884Y253291D02*
D03*
X1136916D02*
D03*
X1125105D02*
D03*
X1131010D02*
D03*
X1132979D02*
D03*
X1134947D02*
D03*
X1095577D02*
D03*
X1097546D02*
D03*
X1099514D02*
D03*
X1101483D02*
D03*
X1103451D02*
D03*
X1105420D02*
D03*
X1107388D02*
D03*
X1109357D02*
D03*
X1111325D02*
D03*
X1113294D02*
D03*
X1115262D02*
D03*
X1117231D02*
D03*
X1119199D02*
D03*
X1121168D02*
D03*
X1123136D02*
D03*
X1127073D02*
D03*
X1129042D02*
D03*
X1140853D02*
D03*
X1142821D02*
D03*
X1144790D02*
D03*
X1146758D02*
D03*
X1148727D02*
D03*
X1150695D02*
D03*
X1152664D02*
D03*
X1154632D02*
D03*
X1156601D02*
D03*
X1158569D02*
D03*
X1160538D02*
D03*
X1162506D02*
D03*
X1164475D02*
D03*
X1166443D02*
D03*
X1168412D02*
D03*
X1170380D02*
D03*
X1172349D02*
D03*
X1174317D02*
D03*
X1176286D02*
D03*
X1178254D02*
D03*
X1180223D02*
D03*
Y352110D02*
D03*
X1178254D02*
D03*
X1176286D02*
D03*
X1174317D02*
D03*
X1172349D02*
D03*
X1170380D02*
D03*
X1168412D02*
D03*
X1166443D02*
D03*
X1164475D02*
D03*
X1162506D02*
D03*
X1160538D02*
D03*
X1158569D02*
D03*
X1156601D02*
D03*
X1154632D02*
D03*
X1152664D02*
D03*
X1150695D02*
D03*
X1148727D02*
D03*
X1146758D02*
D03*
X1144790D02*
D03*
X1142821D02*
D03*
X1140853D02*
D03*
X1138884D02*
D03*
X1136916D02*
D03*
X1134947D02*
D03*
X1132979D02*
D03*
X1131010D02*
D03*
X1129042D02*
D03*
X1127073D02*
D03*
X1125105D02*
D03*
X1123136D02*
D03*
X1121168D02*
D03*
X1119199D02*
D03*
X1117231D02*
D03*
X1115262D02*
D03*
X1113294D02*
D03*
X1111325D02*
D03*
X1109357D02*
D03*
X1107388D02*
D03*
X1105420D02*
D03*
X1103451D02*
D03*
X1101483D02*
D03*
X1099514D02*
D03*
X1097546D02*
D03*
X1095577D02*
D03*
D166*
X1332441Y220166D02*
D03*
X1335000D02*
D03*
X1337559D02*
D03*
Y228434D02*
D03*
X1332441D02*
D03*
D167*
X1250900Y175154D02*
D03*
Y194446D02*
D03*
D168*
X883020Y451566D02*
D03*
Y454125D02*
D03*
Y456684D02*
D03*
Y459243D02*
D03*
Y461802D02*
D03*
Y464361D02*
D03*
Y466921D02*
D03*
Y469480D02*
D03*
Y472039D02*
D03*
Y474598D02*
D03*
Y477157D02*
D03*
Y479716D02*
D03*
Y482275D02*
D03*
Y484834D02*
D03*
X910579D02*
D03*
Y482275D02*
D03*
Y479716D02*
D03*
Y477157D02*
D03*
Y474598D02*
D03*
Y472039D02*
D03*
Y469480D02*
D03*
Y466921D02*
D03*
Y464361D02*
D03*
Y461802D02*
D03*
Y459243D02*
D03*
Y456684D02*
D03*
Y454125D02*
D03*
Y451566D02*
D03*
X883020Y406032D02*
D03*
Y408591D02*
D03*
Y411150D02*
D03*
Y413709D02*
D03*
Y416268D02*
D03*
Y418827D02*
D03*
Y421386D02*
D03*
Y423945D02*
D03*
Y426504D02*
D03*
Y429063D02*
D03*
Y431622D02*
D03*
Y434181D02*
D03*
Y436740D02*
D03*
Y439299D02*
D03*
X910579D02*
D03*
Y436740D02*
D03*
Y434181D02*
D03*
Y431622D02*
D03*
Y429063D02*
D03*
Y426504D02*
D03*
Y423945D02*
D03*
Y421386D02*
D03*
Y418827D02*
D03*
Y416268D02*
D03*
Y413709D02*
D03*
Y411150D02*
D03*
Y408591D02*
D03*
Y406032D02*
D03*
D169*
X810600Y260800D02*
D03*
Y280800D02*
D03*
X830600D02*
D03*
Y260800D02*
D03*
X820600Y270800D02*
D03*
X810600Y223100D02*
D03*
Y243100D02*
D03*
X830600D02*
D03*
Y223100D02*
D03*
X820600Y233100D02*
D03*
X810600Y395100D02*
D03*
Y415100D02*
D03*
X830600D02*
D03*
Y395100D02*
D03*
X820600Y405100D02*
D03*
X810600Y436100D02*
D03*
Y456100D02*
D03*
X830600D02*
D03*
Y436100D02*
D03*
X820600Y446100D02*
D03*
X1406700Y163600D02*
D03*
X1396700Y173600D02*
D03*
Y153600D02*
D03*
X1416700D02*
D03*
Y173600D02*
D03*
D170*
X820900Y476600D02*
D03*
X1414046Y478966D02*
D03*
X1413947Y123466D02*
D03*
X820700Y126800D02*
D03*
D171*
X801500Y352384D02*
D03*
Y378368D02*
D03*
Y296100D02*
D03*
Y322084D02*
D03*
D172*
X821100Y155200D02*
D03*
Y200200D02*
D03*
D173*
X833100Y147200D02*
D03*
Y208200D02*
D03*
D174*
X801800Y162800D02*
D03*
X807800Y152800D02*
D03*
Y192600D02*
D03*
X801800Y202600D02*
D03*
D175*
X856100Y160200D02*
D03*
X846100Y165200D02*
D03*
X856100Y170200D02*
D03*
X846100Y175200D02*
D03*
X856100Y180200D02*
D03*
Y190200D02*
D03*
X846100Y195200D02*
D03*
Y185200D02*
D03*
X1405600Y367700D02*
D03*
X1395600D02*
D03*
X1405600Y377700D02*
D03*
X1395600D02*
D03*
X1405600Y317700D02*
D03*
X1395600D02*
D03*
X1405600Y327700D02*
D03*
X1395600D02*
D03*
Y337700D02*
D03*
X1405600D02*
D03*
X1395600Y347700D02*
D03*
X1405600D02*
D03*
X1395600Y357700D02*
D03*
X1405600D02*
D03*
Y267700D02*
D03*
X1395600D02*
D03*
X1405600Y277700D02*
D03*
X1395600D02*
D03*
Y287700D02*
D03*
X1405600D02*
D03*
X1395600Y297700D02*
D03*
X1405600D02*
D03*
X1395600Y307700D02*
D03*
X1405600D02*
D03*
Y217700D02*
D03*
X1395600D02*
D03*
X1405600Y227700D02*
D03*
X1395600D02*
D03*
Y237700D02*
D03*
X1405600D02*
D03*
X1395600Y247700D02*
D03*
X1405600D02*
D03*
X1395600Y257700D02*
D03*
X1405600D02*
D03*
D176*
X1390500Y432600D02*
D03*
X1402705Y452285D02*
D03*
X1414909Y432600D02*
D03*
D177*
X859600Y472100D02*
D03*
X939400Y199400D02*
D03*
X894669Y355031D02*
D03*
X899000D02*
D03*
X903331D02*
D03*
X894669Y350700D02*
D03*
X899000D02*
D03*
X903331D02*
D03*
X894669Y346369D02*
D03*
X899000D02*
D03*
X903331D02*
D03*
X900900Y421200D02*
D03*
X943500Y466600D02*
D03*
X1310500Y407300D02*
D03*
M02*
