G04 Layer_Color=16711935*
%FSLAX25Y25*%
%MOIN*%
G70*
G01*
G75*
%ADD109R,0.03084X0.03241*%
%ADD132R,0.03241X0.03084*%
%ADD169C,0.09461*%
%ADD170C,0.05800*%
%ADD171O,0.07099X0.04343*%
%ADD172C,0.12598*%
%ADD173C,0.09855*%
%ADD174C,0.07493*%
%ADD175C,0.07099*%
%ADD176C,0.16154*%
%ADD177C,0.03162*%
%ADD178R,0.06706X0.03556*%
D109*
X812050Y230900D02*
D03*
X808350D02*
D03*
X812650Y425000D02*
D03*
X808950D02*
D03*
X812250Y289100D02*
D03*
X808550D02*
D03*
X1098350Y319700D02*
D03*
X1102050D02*
D03*
X1098350Y315600D02*
D03*
X1102050D02*
D03*
X1098350Y311500D02*
D03*
X1102050D02*
D03*
X1098350Y307400D02*
D03*
X1102050D02*
D03*
X1098350Y303300D02*
D03*
X1102050D02*
D03*
X1098350Y299200D02*
D03*
X1102050D02*
D03*
X1097350Y283400D02*
D03*
X1101050D02*
D03*
X1172450Y261700D02*
D03*
X1168750D02*
D03*
D132*
X809800Y384050D02*
D03*
Y387750D02*
D03*
X809000Y335350D02*
D03*
Y339050D02*
D03*
X1123900Y264950D02*
D03*
Y268650D02*
D03*
X1148600Y264950D02*
D03*
Y268650D02*
D03*
X1128000Y264950D02*
D03*
Y268650D02*
D03*
X1132100Y264950D02*
D03*
Y268650D02*
D03*
X1136200Y264950D02*
D03*
Y268650D02*
D03*
X1140300Y264950D02*
D03*
Y268650D02*
D03*
X1119800Y264950D02*
D03*
Y268650D02*
D03*
X1144500Y264950D02*
D03*
Y268650D02*
D03*
D169*
X810600Y260800D02*
D03*
Y280800D02*
D03*
X830600D02*
D03*
Y260800D02*
D03*
X820600Y270800D02*
D03*
X810600Y223100D02*
D03*
Y243100D02*
D03*
X830600D02*
D03*
Y223100D02*
D03*
X820600Y233100D02*
D03*
X810600Y395100D02*
D03*
Y415100D02*
D03*
X830600D02*
D03*
Y395100D02*
D03*
X820600Y405100D02*
D03*
X810600Y436100D02*
D03*
Y456100D02*
D03*
X830600D02*
D03*
Y436100D02*
D03*
X820600Y446100D02*
D03*
X1406700Y163600D02*
D03*
X1396700Y173600D02*
D03*
Y153600D02*
D03*
X1416700D02*
D03*
Y173600D02*
D03*
D170*
X820900Y476600D02*
D03*
X1414046Y478966D02*
D03*
X1413947Y123466D02*
D03*
X820700Y126800D02*
D03*
D171*
X801500Y352384D02*
D03*
Y378368D02*
D03*
Y296100D02*
D03*
Y322084D02*
D03*
D172*
X821100Y155200D02*
D03*
Y200200D02*
D03*
D173*
X833100Y147200D02*
D03*
Y208200D02*
D03*
D174*
X801800Y162800D02*
D03*
X807800Y152800D02*
D03*
Y192600D02*
D03*
X801800Y202600D02*
D03*
D175*
X856100Y160200D02*
D03*
X846100Y165200D02*
D03*
X856100Y170200D02*
D03*
X846100Y175200D02*
D03*
X856100Y180200D02*
D03*
Y190200D02*
D03*
X846100Y195200D02*
D03*
Y185200D02*
D03*
X1405600Y367700D02*
D03*
X1395600D02*
D03*
X1405600Y377700D02*
D03*
X1395600D02*
D03*
X1405600Y317700D02*
D03*
X1395600D02*
D03*
X1405600Y327700D02*
D03*
X1395600D02*
D03*
Y337700D02*
D03*
X1405600D02*
D03*
X1395600Y347700D02*
D03*
X1405600D02*
D03*
X1395600Y357700D02*
D03*
X1405600D02*
D03*
Y267700D02*
D03*
X1395600D02*
D03*
X1405600Y277700D02*
D03*
X1395600D02*
D03*
Y287700D02*
D03*
X1405600D02*
D03*
X1395600Y297700D02*
D03*
X1405600D02*
D03*
X1395600Y307700D02*
D03*
X1405600D02*
D03*
Y217700D02*
D03*
X1395600D02*
D03*
X1405600Y227700D02*
D03*
X1395600D02*
D03*
Y237700D02*
D03*
X1405600D02*
D03*
X1395600Y247700D02*
D03*
X1405600D02*
D03*
X1395600Y257700D02*
D03*
X1405600D02*
D03*
D176*
X1390500Y432600D02*
D03*
X1402705Y452285D02*
D03*
X1414909Y432600D02*
D03*
D177*
X859600Y472100D02*
D03*
X939400Y199400D02*
D03*
X894669Y355031D02*
D03*
X899000D02*
D03*
X903331D02*
D03*
X894669Y350700D02*
D03*
X899000D02*
D03*
X903331D02*
D03*
X894669Y346369D02*
D03*
X899000D02*
D03*
X903331D02*
D03*
X900900Y421200D02*
D03*
X943500Y466600D02*
D03*
X1310500Y407300D02*
D03*
D178*
X802584Y229301D02*
D03*
Y216899D02*
D03*
X802784Y289001D02*
D03*
Y276599D02*
D03*
X802584Y343301D02*
D03*
Y330899D02*
D03*
X802684Y398701D02*
D03*
Y386299D02*
D03*
Y419401D02*
D03*
Y406999D02*
D03*
M02*
