M48
;Layer_Color=9474304
;FILE_FORMAT=4:4
METRIC,LZ
;TYPE=PLATED
T1F00S00C0.3000
T3F00S00C0.9000
T4F00S00C1.0000
T5F00S00C1.5000
T6F00S00C1.6000
T7F00S00C2.7940
T8F00S00C3.2000
;TYPE=NON_PLATED
T9F00S00C3.2000
%
T01
X02414088Y00393518
X0259842Y0030734
X0262382Y00307594
X0264922Y0030734
X0267462Y00307086
X0275697Y00319332
X0280563Y00319586
X02828072Y00333466
X02793506Y00376414
X02960878Y00387858
X03032656Y0034021
X03074266Y0035321
X03086408Y00353114
X03087624Y0036576
X03088894Y0032639
X03110284Y00321872
X03197044Y00378514
X03189986Y00468376
X0317627Y00469392
X03200146Y00479552
X03199384Y00493522
X03200146Y0050419
X03227578Y00488188
X03235198
X03242818
X03250692
X03301746Y00502666
Y00556514
X03303016Y00621792
X0330454Y0063246
Y00643128
X03314192Y00637794
Y00624078
X03317494Y00651764
X0331037Y00669556
X03309864Y00685556
X03317894Y00685546
X03313938Y00693674
X03309874Y00700532
X0330974Y00709556
X0331597Y00732282
X03327146Y00731774
X03342894Y00717804
X0334518Y0070104
X03362198Y00699262
X03362706Y00718058
X03369056Y00747776
X03374644Y00762508
X03363214Y0077597
X03342894Y00779526
X03335166Y0076581
X0331724Y00772922
X03318002Y00781558
X03310252Y00789556
X03282188Y0078232
X03282442Y00767588
X03278124Y00748792
X0328295Y00738378
X03263138Y00736092
X03268472Y00720852
X0327406Y00687324
X03259836Y00647954
X0326644Y0063627
X03257296Y00616712
X03340862Y00616458
X03346196Y00622808
X03341878Y00592328
X03354578Y00590296
X033844Y0058943
X033974Y0054976
X03374136Y0049657
X03371852Y00637284
X03333242Y00662178
X03327654Y0067056
X03309766Y007493
X0326644Y0077978
X03226054Y00785114
X03196844Y0079121
X03239516Y00737616
X03178048Y00611632
X0344297Y00589534
X03507994Y00604266
X03526213Y00607822
X03519424Y0068453
X03480308Y00693166
X03471418Y00693674
X034925Y00706882
X03489706Y0071755
X03498088Y00731012
X03477006Y00742442
X0343662Y00748792
X03428746Y0074549
X03437382Y00761746
X03399536Y00773684
X033909Y00781558
X03166872Y00790448
X03170936Y00765556
X03163824Y00742442
X03169026Y00725556
X03165856Y00709168
X0314706Y00701548
X03110738Y00704088
X0307594Y00697992
X03081782Y00729234
Y00738632
X03055112Y00729234
X03036388Y00723138
X03030702Y00751358
X0299847Y00756158
X02998724Y00771144
X0300355Y00781558
X0297815Y00785622
X02965196Y00790956
X02960878Y00782574
X0294386Y00781812
X0293243Y00787908
X0291338Y00782066
X02904236Y007874
X02894076Y00776224
X02877566Y00793242
X02806446Y0079121
X02806192Y00780796
Y00770382
X02805684Y00759968
X02783078
X02783332Y00770382
X02783586Y00780796
X02783078Y0079121
X0277876Y00719836
X02779632Y00696358
X0280543Y00703072
X02808224Y007112
X02804414Y00719836
X02825242Y00713994
X02834132Y00723392
X02844292Y00689356
X02854706Y00689102
X0286512Y0068961
X02875534Y00689356
X02885948Y0068961
X02896362
X0290703
X02917444
Y00665734
X0290703
X02896362Y00665988
X02885948
X02875534
X0286512Y00666242
X02854706Y00665988
X02844292
X02862834Y00654558
X0287655Y00623062
X02867914Y00604266
X0288798Y0060579
X02898648Y00606044
X02911094Y0061468
X02910332Y006223
X02912766Y00655976
X02957766Y00657288
X02960624Y00664972
X02952766Y00678418
X02994914Y00682244
X03001518Y00677164
X03000872Y00666358
X02988818Y00657098
X02978024Y00657224
X02976372Y00622808
X0297688Y00614426
X02965198Y0060503
X03001772Y00619977
X03008122Y00628904
X03019552Y00635
X03027172Y00641858
X03030474Y0061468
X03011424Y00612648
X03054604Y00618744
X03054096Y00625856
X03044952Y0066421
X03035554
X0303657Y00680974
X03031266Y00691358
X0305816Y00670814
X0310134Y00646684
X03102864Y00624332
X03103118Y00616966
X0303911Y00582676
X03004566Y00550418
X02904998Y00547624
X02908808Y00582676
X02919222
X02847766Y00586404
X02834894Y0058674
X02832766Y00599344
X0281178Y00588264
X02798318Y0059309
X0280289Y00603504
X02811526Y006223
X0279781Y00657352
X02799842Y00549656
X02789936Y00543814
X02827146Y00447928
X02841244Y00434086
X02840736Y00421132
X02803006Y00421248
X02921762Y00421132
X02921Y00433832
Y00446532
X02920746Y00459232
X0295148Y00420116
X02968244Y00412496
X02990342Y00415544
X03023616Y00428752
X03015742Y00437642
X03153664Y004699
X03154172Y0048641
X03155442Y00502158
X03174692Y00405692
X03168148Y00661556
X03168404Y00677556
X03147568Y00748284
X03059684Y00763524
X03051048Y0077851
X03053334Y00786384
X03036388Y00792552
X0298196Y00749808
X02964434Y00736346
X0300101Y0072644
X03002026Y0071882
X03001772Y007112
X0298069Y00705104
X02743454Y00710946
X02727706Y00701802
X0272161Y00696976
X0275085Y00691358
X02726182Y00664464
X02724912Y00636778
X0273939Y00633984
X02739136Y0061976
X0274955Y00612902
X02771394Y006096
X0274955Y00640588
X02727531Y00598932
X02716324Y00585264
X02707894Y0059055
X02708656Y0057912
X02700274Y00570992
X02675128Y00555752
X02634488Y00543814
X02612898Y00556006
X0262382Y00567944
X0262636Y00614934
X02600198Y00625094
X02574036Y00615696
X02565472Y00598496
X02658364Y00629158
X02666238Y0063754
X02673858Y00635508
X02679192Y00628904
X02699512Y00682244
X02685288Y00698246
X0268732Y0076962
X02735326Y00774954
X02744398Y00775644
X02752598Y00771398
X0263779Y00747268
X02627074Y00750268
X02620772Y0072898
X02602738Y00744982
X0259207Y0075057
X02445004Y0067183
X02429256Y00665226
X02405888Y00520446
X02387346
X02386076Y00506476
X02396744Y0050673
X02406142Y00474726
X0241046Y00450596
X02406396Y00432562
X02406142Y0042164
X02452116Y00418084
X02462402Y00456058
X02460752Y00482854
X02462022Y00503174
X02463038Y00519684
X02438908Y00506222
X02428494Y0048895
X02423668Y00462788
X02392752Y00458144
X02484628Y00437134
X02513584Y00446786
X02530348Y00471932
X02527808Y0049911
X02513076Y00493014
X02508758Y00511556
Y0051943
X02497328Y00477774
X02594228Y0044615
X02603628Y00445642
X0261912Y0044615
X0264452Y00446404
X0265392
X0266992Y00446406
X0267932Y00446404
X02364798Y00444794
Y00453176
Y00461558
X02356162
Y00453176
Y00444794
X02347526
Y00453176
Y00461558
X02344674Y00494284
X02337308Y00487934
X0231405Y004789
X0231394Y004699
X02275458Y0048222
X0227635Y00453646
X0225717Y0045377
X02238502Y00453898
X02211832Y00459232
X02211214Y00418338
X02211252Y0040952
X02276728Y00425322
X02300224Y00418974
X02324862Y0042037
X02351786Y00419862
X0234257Y00402772
X0237744Y00472948
X02373884Y00481584
X02374138Y00496062
X02212086Y00615696
X02214372Y00707136
X02174748Y00761238
X02147824
X0216154Y00777494
X02154682Y0078486
X02149348Y00790194
X02039874Y00685292
X02037334Y00559816
X02083816Y00550672
X0214122Y0056261
X02131822Y00810514
X02168278Y00808616
X02092198Y00827532
X02075942Y00850646
X02066672Y00871092
X02052322Y00840484
X02149602Y00905256
X02177542
X02216912Y00898652
X02223008Y00885698
X02228328Y00891018
X02241042Y00897382
X0227246Y00901778
X0228346
Y00890778
X0227246
Y00879778
X0228346
X0229446
Y00890778
Y00901778
X02342642Y00903478
X02342388Y00914146
X0235966Y01043432
X02361692Y0107696
X0236657Y01092949
X023368Y01124204
X02282698Y01086612
X02288286Y01069848
X0226187Y01051052
X02266442Y01166368
X0226695Y01185164
X02189988Y01102106
X02170278Y00953414
X02131822Y0095631
X02093976Y0097155
X02039112Y00992886
X02050798Y01033778
X02221992Y00874522
X02246376Y00833628
X02257044Y00834136
X02267712
X02404364Y00850138
X02413254Y0085217
X0258953Y00823976
X02603754Y00826008
X02621534Y0084963
X02658872
X02648966Y00827532
X02668778Y00820518
X0270002Y00855218
X02697734Y00868934
X02708402Y00863854
X02723642Y00851154
X0274262Y00843606
X02752344Y00811022
X02744724Y00799338
X0272796Y0080645
X02696972Y00893572
X02658364Y00912114
X02615692Y00919226
X02619375Y00927735
X0261112Y00927402
X0261493Y00940308
X0260985Y0097663
X02616454Y01018032
X0261747Y01098296
X02627376Y01101598
X0263779Y01107694
X02576576Y01161542
X02473452Y01126744
X02420493Y01126617
X02441448Y01170432
X0239141Y01166368
X0239649Y01185164
X02741422Y01184148
X02741168Y01175512
X0275209
X02752344Y01184148
X0276225Y01183894
X02761996Y01175258
X02772918
X02773172Y01183894
X0274767Y01141832
X02767838Y01057148
X0276733Y0104775
X0275971Y01029716
X02772918Y01026414
X02723134Y01006594
X02705862Y01002284
X0265557Y00966216
X02553462
X02535936Y00967994
X02545334Y00983742
X02776474Y0093726
X02803144Y00933196
X02813812
X02824226
X0283464
X02857246Y00931926
X0286766Y00932688
X02875026Y009144
X02901188
X0292481Y00915162
X02922766Y00907046
X02917698Y00932434
X02932684Y00947166
X02956052
X02951226Y00960882
X02943606Y00966724
X02949346Y00973176
X0295402Y00999236
X02953004Y01016508
X02951734Y010414
X02932302Y01047878
X02913Y01050036
X02912364Y010414
X02914142Y0101727
X02893568Y01034034
X02893822Y01051052
X02897492Y01065644
X02900172Y01104646
X02889504Y011049
X02919476
X02957576Y01102868
X02954492Y01065022
X02971166Y01051052
X03004058Y01034034
X03058668Y0105283
X03084068Y01053338
X03096768
X03109468Y01053084
X03112142Y01012324
X03114142Y00989432
X03071598Y00988592
X03069598Y0101269
X03035046Y00980948
Y00972566
Y00963676
X03022092Y00916686
X03009392Y00917448
X02991358Y0091498
X02991104Y00924052
X02999994Y00931926
X0296291Y0092837
X02969006Y00921766
X029718Y00914146
X02987548Y00880364
X03004566Y00846328
X03029712Y00832612
X03031744Y00818642
Y00805942
X03057398Y00818134
X03066288Y00837946
X03052826Y0084963
X03035808Y00859028
X0304292Y00868172
X03057906Y009144
X0306324Y00919988
X03071368Y00925576
X03167284Y00928782
X03170428Y00852932
X03086354Y00830326
X03070352Y00800608
X0310261Y008001
X02982214Y00795528
X02962402Y00803656
X0291719Y00807212
X02912364Y00819404
X02912872Y00832866
X02906014Y00842264
X02884424Y00837692
X0287782Y00851662
X02869438Y00846074
X02872766Y00882116
X02892806Y00881634
X02832862Y0086868
X0281559Y00867156
X02802636Y00870204
X0279908Y00879094
X02778506Y0087122
X027813Y0085979
Y00852266
X02787396Y00844804
X02788158Y0083566
X02781808Y00830326
X02783332Y00812038
Y00801624
X02806446
X02805938Y00812038
X02864612Y00794004
X02903474Y0079883
X02920746Y00965454
X02929128Y0099441
X0288544Y0100457
X02871216Y01004824
X02864104Y01051306
X02855608Y01074306
X02901188Y0115443
X02918206
X02941066Y01168146
X02957322Y01155192
X02793636Y00915052
X03226308Y00907034
X03256026Y0089489
X03275838Y00879094
X03281426Y00863092
X032893Y00891032
X03315716Y008763
X03330956Y00869442
X0331724Y00921004
X03345434Y00945388
X03396996Y00910082
X03452622Y00900684
X03461512Y00898652
X03466846Y00891286
X0346456Y00911352
X03451352Y00877824
X03456686Y00868426
X03496438Y00875664
X03505962Y00893318
X03488944Y0099441
X03330194Y01019556
X033147
X03296412Y01017016
X03278886Y01017524
X03254502Y01016254
X03240532Y01039368
Y01123188
X0324485Y01165606
X0327406Y01158748
X03203448Y01153668
X03385058Y01173226
X0341503Y0117094
X03422904
X03430778
Y01178814
X03422904
X0341503
X03340354Y0107061
Y01062736
X0333248
X03324606
Y0107061
X0333248
X03329686Y01048512
X0332867Y01034542
X03285744Y00829564
X03283966Y00799084
X03265424Y00799846
X03194304Y00828802
X03192018Y00870204
X03383683Y00794616
X03391408Y0119253
X03490086Y01239646
X03549142Y01233424
X03548888Y01218184
X03548126Y01202944
X02994588Y01191078
X02986278Y0120904
X02956104Y01206806
X02851512Y01216806
X0277368Y01201166
X02773426Y0119253
X02762504
X02762758Y01201166
X02752852Y0120142
X02752598Y01192784
X02741676
X0274193Y0120142
X02368296Y01209294
X02264156Y01201928
X02183384Y01199134
T03
X02149094Y00419608
Y00445008
Y00470408
Y00495808
X02174494Y00483108
Y00457708
Y00432308
Y00406908
T04
X02051812Y00388112
X03544824Y00552958
X03570224
Y00578358
X03544824
Y00603758
X03570224
Y00629158
X03544824
Y00654558
Y00679958
X03570224
Y00705358
X03544824
Y00730758
X03570224
Y00756158
X03544824
Y00781558
X03570224
Y00654558
X02036572Y00514604
X02051812Y00489204
X02036572Y00413512
X03544824Y00806958
X03570224
Y00832358
X03544824
Y00857758
X03570224
Y00883158
X03544824
Y00908558
Y00933958
X03570224
Y00959358
X03544824
X03570224Y00908558
T05
X03547618Y00390144
X03598418
X03573018Y00415544
X03598418Y00440944
X03547618
X02109724Y00566674
X02058924
Y00617474
Y00662432
Y00713232
X02109724
Y00662432
Y00617474
X02084324Y00592074
Y00687832
X02058924Y01003554
Y01054354
X02109724
Y01003554
X02084324Y01028954
X02058924Y01107694
Y01158494
X02109724
Y01107694
X02084324Y01133094
T06
X02116074Y00373888
Y00528828
T07
X02084578Y00322072
X03591424Y00313604
X03591678Y01216574
X02085086Y01210564
T08
X0353187Y01098804
X0356287Y01148804
X0359387Y01098804
T09
X02085594Y00394208
Y00508508
M30
